{
  "accessors": [
    {
      "name": "mesh01_1_0_positions",
      "componentType": 5126,
      "count": 115,
      "min": [
        -0.0005000000237487257,
        -0.0005000000237487257,
        -0.0005000000237487257
      ],
      "max": [
        0.0005000000237487257,
        0.0005000000237487257,
        0.0005000000237487257
      ],
      "type": "VEC3",
      "bufferView": 0,
      "byteOffset": 0
    },
    {
      "name": "mesh01_1_0_normals",
      "componentType": 5126,
      "count": 115,
      "min": [
        -1,
        -1,
        -1
      ],
      "max": [
        1,
        1,
        1
      ],
      "type": "VEC3",
      "bufferView": 1,
      "byteOffset": 0
    },
    {
      "name": "mesh01_1_0_texcoords",
      "componentType": 5126,
      "count": 115,
      "min": [
        0,
        0
      ],
      "max": [
        1,
        1
      ],
      "type": "VEC2",
      "bufferView": 2,
      "byteOffset": 0
    },
    {
      "name": "mesh01_1_0_indices",
      "componentType": 5123,
      "count": 504,
      "min": [
        0
      ],
      "max": [
        114
      ],
      "type": "SCALAR",
      "bufferView": 3,
      "byteOffset": 0
    }
  ],
  "asset": {
    "generator": "obj2gltf",
    "version": "2.0"
  },
  "buffers": [
    {
      "name": "aircraft",
      "byteLength": 4688,
      "uri": "data:application/octet-stream;base64,"
    }
  ],
  "bufferViews": [
    {
      "name": "bufferView_0",
      "buffer": 0,
      "byteLength": 1380,
      "byteOffset": 0,
      "byteStride": 12,
      "target": 34962
    },
    {
      "name": "bufferView_1",
      "buffer": 0,
      "byteLength": 1380,
      "byteOffset": 1380,
      "byteStride": 12,
      "target": 34962
    },
    {
      "name": "bufferView_2",
      "buffer": 0,
      "byteLength": 920,
      "byteOffset": 2760,
      "byteStride": 8,
      "target": 34962
    },
    {
      "name": "bufferView_3",
      "buffer": 0,
      "byteLength": 1008,
      "byteOffset": 3680,
      "target": 34963
    }
  ],
  "materials": [
    {
      "name": "___default___",
      "pbrMetallicRoughness": {
        "baseColorFactor": [
          0.878,
          0.878,
          0.878,
          1
        ],
        "metallicFactor": 0,
        "roughnessFactor": 0.24739999999999995
      },
      "emissiveFactor": [
        0,
        0,
        0
      ],
      "alphaMode": "OPAQUE",
      "doubleSided": false
    }
  ],
  "meshes": [
    {
      "name": "mesh01_1",
      "primitives": [
        {
          "attributes": {
            "POSITION": 0,
            "NORMAL": 1,
            "TEXCOORD_0": 2
          },
          "indices": 3,
          "material": 0,
          "mode": 4
        }
      ]
    }
  ],
  "nodes": [
    {
      "name": "mesh01",
      "mesh": 0
    }
  ],
  "scene": 0,
  "scenes": [
    {
      "nodes": [
        0
      ]
    }
  ]
}
